<mxfile host="app.diagrams.net" agent="Mozilla/5.0 (Macintosh; Intel Mac OS X 10_15_7) AppleWebKit/537.36 (KHTML, like Gecko) Chrome/134.0.0.0 Safari/537.36" version="26.2.8">
  <diagram name="第 1 页" id="FtXrF1HS535M5povIMJo">
    <mxGraphModel dx="1236" dy="790" grid="0" gridSize="10" guides="1" tooltips="1" connect="1" arrows="1" fold="1" page="0" pageScale="1" pageWidth="827" pageHeight="1169" math="0" shadow="0">
      <root>
        <mxCell id="0" />
        <mxCell id="1" parent="0" />
        <mxCell id="9XsfmbvPra8Arlc5wNkv-1" value="用户" style="shape=umlActor;verticalLabelPosition=bottom;verticalAlign=top;html=1;" parent="1" vertex="1">
          <mxGeometry x="101" y="428" width="30" height="60" as="geometry" />
        </mxCell>
        <mxCell id="9XsfmbvPra8Arlc5wNkv-2" value="" style="rounded=0;whiteSpace=wrap;html=1;" parent="1" vertex="1">
          <mxGeometry x="213" y="65" width="580" height="764" as="geometry" />
        </mxCell>
        <mxCell id="9XsfmbvPra8Arlc5wNkv-3" value="工作项管理功能" style="text;html=1;align=center;verticalAlign=middle;whiteSpace=wrap;rounded=0;" parent="1" vertex="1">
          <mxGeometry x="453.5" y="65" width="99" height="30" as="geometry" />
        </mxCell>
        <mxCell id="9XsfmbvPra8Arlc5wNkv-4" value="复制工作项" style="ellipse;whiteSpace=wrap;html=1;" parent="1" vertex="1">
          <mxGeometry x="495" y="349" width="100" height="50" as="geometry" />
        </mxCell>
        <mxCell id="9XsfmbvPra8Arlc5wNkv-5" value="开启需求" style="ellipse;whiteSpace=wrap;html=1;" parent="1" vertex="1">
          <mxGeometry x="227" y="299" width="100" height="50" as="geometry" />
        </mxCell>
        <mxCell id="9XsfmbvPra8Arlc5wNkv-6" value="" style="endArrow=none;html=1;rounded=0;exitX=1;exitY=0.3333333333333333;exitDx=0;exitDy=0;exitPerimeter=0;entryX=0;entryY=0.5;entryDx=0;entryDy=0;" parent="1" source="9XsfmbvPra8Arlc5wNkv-1" target="9XsfmbvPra8Arlc5wNkv-5" edge="1">
          <mxGeometry width="50" height="50" relative="1" as="geometry">
            <mxPoint x="148" y="198" as="sourcePoint" />
            <mxPoint x="240" y="164" as="targetPoint" />
          </mxGeometry>
        </mxCell>
        <mxCell id="9XsfmbvPra8Arlc5wNkv-7" value="设置工作流" style="ellipse;whiteSpace=wrap;html=1;" parent="1" vertex="1">
          <mxGeometry x="495" y="513" width="100" height="50" as="geometry" />
        </mxCell>
        <mxCell id="9XsfmbvPra8Arlc5wNkv-8" value="同步状态" style="ellipse;whiteSpace=wrap;html=1;" parent="1" vertex="1">
          <mxGeometry x="661" y="428" width="100" height="50" as="geometry" />
        </mxCell>
        <mxCell id="9XsfmbvPra8Arlc5wNkv-10" value="开启缺陷" style="ellipse;whiteSpace=wrap;html=1;" parent="1" vertex="1">
          <mxGeometry x="224" y="581" width="100" height="50" as="geometry" />
        </mxCell>
        <mxCell id="9XsfmbvPra8Arlc5wNkv-11" value="设置通用模版" style="ellipse;whiteSpace=wrap;html=1;" parent="1" vertex="1">
          <mxGeometry x="495" y="103" width="100" height="50" as="geometry" />
        </mxCell>
        <mxCell id="9XsfmbvPra8Arlc5wNkv-13" value="设置状态" style="ellipse;whiteSpace=wrap;html=1;" parent="1" vertex="1">
          <mxGeometry x="495" y="278" width="100" height="50" as="geometry" />
        </mxCell>
        <mxCell id="9XsfmbvPra8Arlc5wNkv-14" value="" style="endArrow=none;html=1;rounded=0;exitX=1;exitY=0.3333333333333333;exitDx=0;exitDy=0;exitPerimeter=0;entryX=0;entryY=0.5;entryDx=0;entryDy=0;" parent="1" source="9XsfmbvPra8Arlc5wNkv-1" target="9XsfmbvPra8Arlc5wNkv-10" edge="1">
          <mxGeometry width="50" height="50" relative="1" as="geometry">
            <mxPoint x="142" y="385" as="sourcePoint" />
            <mxPoint x="232" y="199" as="targetPoint" />
          </mxGeometry>
        </mxCell>
        <mxCell id="9XsfmbvPra8Arlc5wNkv-23" value="创建WBS" style="ellipse;whiteSpace=wrap;html=1;" parent="1" vertex="1">
          <mxGeometry x="498" y="199" width="100" height="50" as="geometry" />
        </mxCell>
        <mxCell id="9XsfmbvPra8Arlc5wNkv-26" value="关联工作项" style="ellipse;whiteSpace=wrap;html=1;" parent="1" vertex="1">
          <mxGeometry x="495" y="428" width="100" height="50" as="geometry" />
        </mxCell>
        <mxCell id="9XsfmbvPra8Arlc5wNkv-27" value="设置字段" style="ellipse;whiteSpace=wrap;html=1;" parent="1" vertex="1">
          <mxGeometry x="495" y="592" width="100" height="50" as="geometry" />
        </mxCell>
        <mxCell id="9XsfmbvPra8Arlc5wNkv-28" value="创建需求" style="ellipse;whiteSpace=wrap;html=1;" parent="1" vertex="1">
          <mxGeometry x="364" y="108" width="100" height="50" as="geometry" />
        </mxCell>
        <mxCell id="9XsfmbvPra8Arlc5wNkv-29" value="编写工作项信息" style="ellipse;whiteSpace=wrap;html=1;" parent="1" vertex="1">
          <mxGeometry x="495" y="686" width="100" height="50" as="geometry" />
        </mxCell>
        <mxCell id="9XsfmbvPra8Arlc5wNkv-30" value="创建缺陷" style="ellipse;whiteSpace=wrap;html=1;" parent="1" vertex="1">
          <mxGeometry x="327" y="720" width="100" height="50" as="geometry" />
        </mxCell>
        <mxCell id="9XsfmbvPra8Arlc5wNkv-31" value="&amp;lt;&amp;lt;extend&amp;gt;&amp;gt;" style="html=1;verticalAlign=bottom;labelBackgroundColor=none;endArrow=open;endFill=0;dashed=1;rounded=0;exitX=0.5;exitY=1;exitDx=0;exitDy=0;entryX=0.5;entryY=0;entryDx=0;entryDy=0;" parent="1" source="9XsfmbvPra8Arlc5wNkv-28" target="9XsfmbvPra8Arlc5wNkv-5" edge="1">
          <mxGeometry width="160" relative="1" as="geometry">
            <mxPoint x="332" y="424" as="sourcePoint" />
            <mxPoint x="492" y="424" as="targetPoint" />
          </mxGeometry>
        </mxCell>
        <mxCell id="9XsfmbvPra8Arlc5wNkv-32" value="&amp;lt;&amp;lt;extend&amp;gt;&amp;gt;" style="html=1;verticalAlign=bottom;labelBackgroundColor=none;endArrow=open;endFill=0;dashed=1;rounded=0;exitX=0;exitY=0.5;exitDx=0;exitDy=0;entryX=1;entryY=0.5;entryDx=0;entryDy=0;" parent="1" source="9XsfmbvPra8Arlc5wNkv-11" target="9XsfmbvPra8Arlc5wNkv-5" edge="1">
          <mxGeometry width="160" relative="1" as="geometry">
            <mxPoint x="349" y="190" as="sourcePoint" />
            <mxPoint x="287" y="309" as="targetPoint" />
          </mxGeometry>
        </mxCell>
        <mxCell id="9XsfmbvPra8Arlc5wNkv-33" value="&amp;lt;&amp;lt;extend&amp;gt;&amp;gt;" style="html=1;verticalAlign=bottom;labelBackgroundColor=none;endArrow=open;endFill=0;dashed=1;rounded=0;exitX=0;exitY=0.5;exitDx=0;exitDy=0;entryX=1;entryY=0.5;entryDx=0;entryDy=0;" parent="1" source="9XsfmbvPra8Arlc5wNkv-23" target="9XsfmbvPra8Arlc5wNkv-5" edge="1">
          <mxGeometry width="160" relative="1" as="geometry">
            <mxPoint x="505" y="138" as="sourcePoint" />
            <mxPoint x="337" y="334" as="targetPoint" />
          </mxGeometry>
        </mxCell>
        <mxCell id="9XsfmbvPra8Arlc5wNkv-34" value="&amp;lt;&amp;lt;extend&amp;gt;&amp;gt;" style="html=1;verticalAlign=bottom;labelBackgroundColor=none;endArrow=open;endFill=0;dashed=1;rounded=0;exitX=0;exitY=0.5;exitDx=0;exitDy=0;" parent="1" source="9XsfmbvPra8Arlc5wNkv-13" edge="1">
          <mxGeometry width="160" relative="1" as="geometry">
            <mxPoint x="505" y="203" as="sourcePoint" />
            <mxPoint x="324" y="325" as="targetPoint" />
          </mxGeometry>
        </mxCell>
        <mxCell id="9XsfmbvPra8Arlc5wNkv-36" value="&amp;lt;&amp;lt;extend&amp;gt;&amp;gt;" style="html=1;verticalAlign=bottom;labelBackgroundColor=none;endArrow=open;endFill=0;dashed=1;rounded=0;exitX=0;exitY=0.5;exitDx=0;exitDy=0;" parent="1" source="9XsfmbvPra8Arlc5wNkv-4" target="9XsfmbvPra8Arlc5wNkv-5" edge="1">
          <mxGeometry width="160" relative="1" as="geometry">
            <mxPoint x="505" y="274" as="sourcePoint" />
            <mxPoint x="334" y="335" as="targetPoint" />
          </mxGeometry>
        </mxCell>
        <mxCell id="9XsfmbvPra8Arlc5wNkv-37" value="&amp;lt;&amp;lt;extend&amp;gt;&amp;gt;" style="html=1;verticalAlign=bottom;labelBackgroundColor=none;endArrow=open;endFill=0;dashed=1;rounded=0;exitX=0;exitY=0.5;exitDx=0;exitDy=0;entryX=1;entryY=0.5;entryDx=0;entryDy=0;" parent="1" source="9XsfmbvPra8Arlc5wNkv-4" target="9XsfmbvPra8Arlc5wNkv-10" edge="1">
          <mxGeometry width="160" relative="1" as="geometry">
            <mxPoint x="505" y="345" as="sourcePoint" />
            <mxPoint x="337" y="337" as="targetPoint" />
          </mxGeometry>
        </mxCell>
        <mxCell id="9XsfmbvPra8Arlc5wNkv-38" value="&amp;lt;&amp;lt;extend&amp;gt;&amp;gt;" style="html=1;verticalAlign=bottom;labelBackgroundColor=none;endArrow=open;endFill=0;dashed=1;rounded=0;exitX=0;exitY=0.5;exitDx=0;exitDy=0;entryX=1;entryY=0.5;entryDx=0;entryDy=0;" parent="1" source="9XsfmbvPra8Arlc5wNkv-26" target="9XsfmbvPra8Arlc5wNkv-5" edge="1">
          <mxGeometry width="160" relative="1" as="geometry">
            <mxPoint x="505" y="345" as="sourcePoint" />
            <mxPoint x="333" y="472" as="targetPoint" />
          </mxGeometry>
        </mxCell>
        <mxCell id="9XsfmbvPra8Arlc5wNkv-39" value="&amp;lt;&amp;lt;extend&amp;gt;&amp;gt;" style="html=1;verticalAlign=bottom;labelBackgroundColor=none;endArrow=open;endFill=0;dashed=1;rounded=0;exitX=0;exitY=0.5;exitDx=0;exitDy=0;entryX=1;entryY=0.5;entryDx=0;entryDy=0;" parent="1" source="9XsfmbvPra8Arlc5wNkv-7" target="9XsfmbvPra8Arlc5wNkv-5" edge="1">
          <mxGeometry width="160" relative="1" as="geometry">
            <mxPoint x="505" y="413" as="sourcePoint" />
            <mxPoint x="337" y="334" as="targetPoint" />
          </mxGeometry>
        </mxCell>
        <mxCell id="9XsfmbvPra8Arlc5wNkv-40" value="&amp;lt;&amp;lt;extend&amp;gt;&amp;gt;" style="html=1;verticalAlign=bottom;labelBackgroundColor=none;endArrow=open;endFill=0;dashed=1;rounded=0;exitX=0;exitY=0.5;exitDx=0;exitDy=0;entryX=1;entryY=0.5;entryDx=0;entryDy=0;" parent="1" source="9XsfmbvPra8Arlc5wNkv-27" target="9XsfmbvPra8Arlc5wNkv-5" edge="1">
          <mxGeometry width="160" relative="1" as="geometry">
            <mxPoint x="505" y="479" as="sourcePoint" />
            <mxPoint x="337" y="334" as="targetPoint" />
          </mxGeometry>
        </mxCell>
        <mxCell id="9XsfmbvPra8Arlc5wNkv-41" value="&amp;lt;&amp;lt;extend&amp;gt;&amp;gt;" style="html=1;verticalAlign=bottom;labelBackgroundColor=none;endArrow=open;endFill=0;dashed=1;rounded=0;exitX=0;exitY=0.5;exitDx=0;exitDy=0;entryX=1;entryY=0.5;entryDx=0;entryDy=0;" parent="1" source="9XsfmbvPra8Arlc5wNkv-29" target="9XsfmbvPra8Arlc5wNkv-5" edge="1">
          <mxGeometry width="160" relative="1" as="geometry">
            <mxPoint x="505" y="553" as="sourcePoint" />
            <mxPoint x="337" y="334" as="targetPoint" />
          </mxGeometry>
        </mxCell>
        <mxCell id="9XsfmbvPra8Arlc5wNkv-42" value="&amp;lt;&amp;lt;extend&amp;gt;&amp;gt;" style="html=1;verticalAlign=bottom;labelBackgroundColor=none;endArrow=open;endFill=0;dashed=1;rounded=0;exitX=0.5;exitY=0;exitDx=0;exitDy=0;entryX=0.5;entryY=1;entryDx=0;entryDy=0;" parent="1" source="9XsfmbvPra8Arlc5wNkv-30" target="9XsfmbvPra8Arlc5wNkv-10" edge="1">
          <mxGeometry width="160" relative="1" as="geometry">
            <mxPoint x="505" y="627" as="sourcePoint" />
            <mxPoint x="337" y="334" as="targetPoint" />
          </mxGeometry>
        </mxCell>
        <mxCell id="9XsfmbvPra8Arlc5wNkv-43" value="&amp;lt;&amp;lt;extend&amp;gt;&amp;gt;" style="html=1;verticalAlign=bottom;labelBackgroundColor=none;endArrow=open;endFill=0;dashed=1;rounded=0;exitX=0;exitY=0.5;exitDx=0;exitDy=0;entryX=1;entryY=0.5;entryDx=0;entryDy=0;" parent="1" source="9XsfmbvPra8Arlc5wNkv-29" target="9XsfmbvPra8Arlc5wNkv-10" edge="1">
          <mxGeometry width="160" relative="1" as="geometry">
            <mxPoint x="383" y="615" as="sourcePoint" />
            <mxPoint x="283" y="497" as="targetPoint" />
          </mxGeometry>
        </mxCell>
        <mxCell id="9XsfmbvPra8Arlc5wNkv-44" value="&amp;lt;&amp;lt;extend&amp;gt;&amp;gt;" style="html=1;verticalAlign=bottom;labelBackgroundColor=none;endArrow=open;endFill=0;dashed=1;rounded=0;exitX=0;exitY=0.5;exitDx=0;exitDy=0;entryX=1;entryY=0.5;entryDx=0;entryDy=0;" parent="1" source="9XsfmbvPra8Arlc5wNkv-27" target="9XsfmbvPra8Arlc5wNkv-10" edge="1">
          <mxGeometry width="160" relative="1" as="geometry">
            <mxPoint x="505" y="627" as="sourcePoint" />
            <mxPoint x="333" y="472" as="targetPoint" />
          </mxGeometry>
        </mxCell>
        <mxCell id="9XsfmbvPra8Arlc5wNkv-45" value="&amp;lt;&amp;lt;extend&amp;gt;&amp;gt;" style="html=1;verticalAlign=bottom;labelBackgroundColor=none;endArrow=open;endFill=0;dashed=1;rounded=0;exitX=0;exitY=0.5;exitDx=0;exitDy=0;entryX=1;entryY=0.5;entryDx=0;entryDy=0;" parent="1" source="9XsfmbvPra8Arlc5wNkv-7" target="9XsfmbvPra8Arlc5wNkv-10" edge="1">
          <mxGeometry width="160" relative="1" as="geometry">
            <mxPoint x="505" y="553" as="sourcePoint" />
            <mxPoint x="333" y="472" as="targetPoint" />
          </mxGeometry>
        </mxCell>
        <mxCell id="9XsfmbvPra8Arlc5wNkv-46" value="&amp;lt;&amp;lt;extend&amp;gt;&amp;gt;" style="html=1;verticalAlign=bottom;labelBackgroundColor=none;endArrow=open;endFill=0;dashed=1;rounded=0;exitX=0;exitY=0.5;exitDx=0;exitDy=0;entryX=1;entryY=0.5;entryDx=0;entryDy=0;" parent="1" source="9XsfmbvPra8Arlc5wNkv-26" target="9XsfmbvPra8Arlc5wNkv-10" edge="1">
          <mxGeometry width="160" relative="1" as="geometry">
            <mxPoint x="505" y="479" as="sourcePoint" />
            <mxPoint x="333" y="472" as="targetPoint" />
          </mxGeometry>
        </mxCell>
        <mxCell id="9XsfmbvPra8Arlc5wNkv-47" value="&amp;lt;&amp;lt;extend&amp;gt;&amp;gt;" style="html=1;verticalAlign=bottom;labelBackgroundColor=none;endArrow=open;endFill=0;dashed=1;rounded=0;exitX=0;exitY=0.5;exitDx=0;exitDy=0;entryX=1;entryY=0.5;entryDx=0;entryDy=0;" parent="1" source="9XsfmbvPra8Arlc5wNkv-13" target="9XsfmbvPra8Arlc5wNkv-10" edge="1">
          <mxGeometry width="160" relative="1" as="geometry">
            <mxPoint x="505" y="413" as="sourcePoint" />
            <mxPoint x="333" y="472" as="targetPoint" />
          </mxGeometry>
        </mxCell>
        <mxCell id="9XsfmbvPra8Arlc5wNkv-48" value="&amp;lt;&amp;lt;extend&amp;gt;&amp;gt;" style="html=1;verticalAlign=bottom;labelBackgroundColor=none;endArrow=open;endFill=0;dashed=1;rounded=0;exitX=0;exitY=0.5;exitDx=0;exitDy=0;entryX=1;entryY=0.5;entryDx=0;entryDy=0;" parent="1" source="9XsfmbvPra8Arlc5wNkv-23" target="9XsfmbvPra8Arlc5wNkv-10" edge="1">
          <mxGeometry width="160" relative="1" as="geometry">
            <mxPoint x="505" y="274" as="sourcePoint" />
            <mxPoint x="325" y="462" as="targetPoint" />
          </mxGeometry>
        </mxCell>
        <mxCell id="9XsfmbvPra8Arlc5wNkv-49" value="&amp;lt;&amp;lt;extend&amp;gt;&amp;gt;" style="html=1;verticalAlign=bottom;labelBackgroundColor=none;endArrow=open;endFill=0;dashed=1;rounded=0;exitX=0;exitY=0.5;exitDx=0;exitDy=0;entryX=1;entryY=0.5;entryDx=0;entryDy=0;" parent="1" source="9XsfmbvPra8Arlc5wNkv-11" target="9XsfmbvPra8Arlc5wNkv-10" edge="1">
          <mxGeometry width="160" relative="1" as="geometry">
            <mxPoint x="505" y="203" as="sourcePoint" />
            <mxPoint x="333" y="472" as="targetPoint" />
          </mxGeometry>
        </mxCell>
        <mxCell id="9XsfmbvPra8Arlc5wNkv-50" value="&amp;lt;&amp;lt;extend&amp;gt;&amp;gt;" style="html=1;verticalAlign=bottom;labelBackgroundColor=none;endArrow=open;endFill=0;dashed=1;rounded=0;exitX=0;exitY=0.5;exitDx=0;exitDy=0;entryX=1;entryY=0.5;entryDx=0;entryDy=0;" parent="1" source="9XsfmbvPra8Arlc5wNkv-8" target="9XsfmbvPra8Arlc5wNkv-26" edge="1">
          <mxGeometry width="160" relative="1" as="geometry">
            <mxPoint x="383" y="615" as="sourcePoint" />
            <mxPoint x="283" y="497" as="targetPoint" />
          </mxGeometry>
        </mxCell>
        <mxCell id="9XsfmbvPra8Arlc5wNkv-52" value="创建需求类别" style="ellipse;whiteSpace=wrap;html=1;" parent="1" vertex="1">
          <mxGeometry x="227" y="108" width="100" height="50" as="geometry" />
        </mxCell>
        <mxCell id="9XsfmbvPra8Arlc5wNkv-53" value="&amp;lt;&amp;lt;extend&amp;gt;&amp;gt;" style="html=1;verticalAlign=bottom;labelBackgroundColor=none;endArrow=open;endFill=0;dashed=1;rounded=0;entryX=0.5;entryY=0;entryDx=0;entryDy=0;" parent="1" source="9XsfmbvPra8Arlc5wNkv-52" target="9XsfmbvPra8Arlc5wNkv-5" edge="1">
          <mxGeometry width="160" relative="1" as="geometry">
            <mxPoint x="424" y="168" as="sourcePoint" />
            <mxPoint x="287" y="309" as="targetPoint" />
          </mxGeometry>
        </mxCell>
      </root>
    </mxGraphModel>
  </diagram>
</mxfile>
